<svg width="22" height="22" viewBox="0 0 22 22" fill="none" xmlns="http://www.w3.org/2000/svg">
<path fill-rule="evenodd" clip-rule="evenodd" d="M20.2579 21.6831L15.1659 16.5911L16.5801 15.1769L21.6721 20.2689L20.2579 21.6831Z" fill="black"/>
<path fill-rule="evenodd" clip-rule="evenodd" d="M10.076 2.891C8.16727 2.891 6.33668 3.64925 4.98698 4.99895C3.63728 6.34865 2.87903 8.17924 2.87903 10.088C2.87903 11.9968 3.63728 13.8273 4.98698 15.177C6.33668 16.5267 8.16727 17.285 10.076 17.285C11.9848 17.285 13.8154 16.5267 15.1651 15.177C16.5148 13.8273 17.273 11.9968 17.273 10.088C17.273 8.17924 16.5148 6.34865 15.1651 4.99895C13.8154 3.64925 11.9848 2.891 10.076 2.891ZM3.57277 3.58474C5.29754 1.85997 7.63683 0.890999 10.076 0.890999C12.5152 0.890999 14.8545 1.85997 16.5793 3.58474C18.3041 5.30951 19.273 7.6488 19.273 10.088C19.273 12.5272 18.3041 14.8665 16.5793 16.5913C14.8545 18.316 12.5152 19.285 10.076 19.285C7.63683 19.285 5.29754 18.316 3.57277 16.5913C1.848 14.8665 0.879028 12.5272 0.879028 10.088C0.879028 7.6488 1.848 5.30951 3.57277 3.58474Z" fill="black"/>
</svg>
