<svg width="18" height="24" viewBox="0 0 18 24" fill="none" xmlns="http://www.w3.org/2000/svg">
<path fill-rule="evenodd" clip-rule="evenodd" d="M9.15145 2.7665C7.92256 2.7665 6.74401 3.25467 5.87507 4.12362C5.00612 4.99257 4.51794 6.17112 4.51794 7.4H2.51794C2.51794 5.64069 3.21683 3.95343 4.46085 2.70941C5.70487 1.46538 7.39213 0.7665 9.15145 0.7665C10.9108 0.7665 12.598 1.46538 13.842 2.70941C15.0861 3.95343 15.7849 5.64069 15.7849 7.4H13.7849C13.7849 6.17112 13.2968 4.99257 12.4278 4.12362C11.5589 3.25467 10.3803 2.7665 9.15145 2.7665Z" fill="black"/>
<path fill-rule="evenodd" clip-rule="evenodd" d="M0.769043 7.211H17.534V23.976H0.769043V7.211ZM2.76904 9.211V21.976H15.534V9.211H2.76904Z" fill="black"/>
</svg>
